<svg width="48" height="48" viewBox="0 0 48 48" fill="none" xmlns="http://www.w3.org/2000/svg">
<path d="M0 0H48V48H0V0Z" fill="#3566FC"/>
<path d="M36.5122 17.3073C36.129 16.9242 35.9475 16.4805 35.9475 15.936C35.9475 15.4117 36.129 14.9478 36.5122 14.5647C36.8953 14.1815 37.339 14 37.8633 14C38.3877 14 38.8515 14.1815 39.2145 14.5647C39.5977 14.9478 39.7792 15.3915 39.7792 15.936C39.7792 16.4603 39.5977 16.9242 39.2145 17.3073C38.8313 17.6905 38.3877 17.872 37.8633 17.872C37.339 17.872 36.8953 17.6905 36.5122 17.3073ZM34.2535 18.7392H39.1943C39.8598 18.7392 40.1825 19.4047 40.1825 20.7155V29.125C40.1825 30.2745 40.969 30.8392 42.3 30.8392V31.0812H34.2535V30.8392C35.5643 30.8392 36.2298 30.2745 36.2298 29.125V20.7155C36.2298 19.566 35.5643 19.0013 34.2535 19.0013V18.7392ZM25.0978 18.7392C25.481 18.7392 25.7432 18.9812 25.9045 19.445C25.9247 19.4652 25.9448 19.4853 25.965 19.4853C26.812 18.9005 27.6388 18.6182 28.4253 18.6182C30.3008 18.6182 31.7932 19.1828 32.9225 20.292C34.0518 21.4213 34.6165 22.954 34.6165 24.9303C34.6165 26.9067 34.0518 28.4393 32.9427 29.5687C31.8335 30.6778 30.321 31.2425 28.4455 31.2425C27.659 31.2425 26.8523 30.9803 26.0658 30.456V36.6673C26.0658 37.7765 26.691 37.9782 27.9615 37.9782V38.2202H20.3587V37.9782C21.6292 37.9782 22.2543 37.7563 22.2543 36.6472V20.655C22.2543 19.5458 21.6292 18.9812 20.3587 18.9812V18.7392H25.0978ZM30.805 24.9303C30.805 22.228 30.7042 20.655 30.5227 20.2113C30.1395 19.3038 29.4538 18.8602 28.4253 18.8602C27.5985 18.8602 26.7918 19.1627 26.0053 19.7475C26.0255 20.0097 26.0457 20.292 26.0457 20.5743C26.0658 23.7607 26.0457 26.947 26.0457 30.1333C26.812 30.698 27.6187 31.0005 28.4253 31.0005C29.4538 31.0005 30.1597 30.5568 30.5227 29.6493C30.7042 29.125 30.805 27.5722 30.805 24.9303ZM11.3442 21.7843V29.125C11.3442 30.2745 11.9693 30.8392 13.2398 30.8392V31.0812H6V30.819C7.0285 30.7182 7.53267 30.1535 7.53267 29.125V20.7155C7.53267 19.8282 7.1495 19.3038 6.40333 19.082V18.7392H10.3762C10.7593 18.7392 11.0215 18.9812 11.1828 19.4652C11.203 19.4853 11.2232 19.5055 11.2433 19.5055C12.0903 18.9207 12.9172 18.6182 13.7037 18.6182C17.8177 18.6182 19.8747 20.1307 19.8747 23.1758V29.1452C19.8747 30.1737 20.399 30.7585 21.4275 30.8392V31.1013H14.1675V30.8593C15.438 30.8593 16.0632 30.2947 16.0632 29.1452V23.4178C16.0632 20.3928 15.2767 18.8803 13.6835 18.8803C12.8567 18.8803 12.05 19.1828 11.2635 19.7878C11.2837 20.0702 11.3038 20.3525 11.3038 20.655C11.3442 21.018 11.3442 21.4012 11.3442 21.7843Z" fill="white"/>
</svg>
